<svg height='300px' width='300px'  fill="#ffffff" xmlns:xlink="http://www.w3.org/1999/xlink" xmlns="http://www.w3.org/2000/svg" stroke-width="0.501" stroke-linejoin="bevel" fill-rule="evenodd" version="1.1" overflow="visible" viewBox="0 0 96 96" x="0px" y="0px"><g fill="none" stroke="black" font-family="Times New Roman" font-size="16" transform="scale(1 -1)"><g transform="translate(0 -96)"><g><path d="M 56.495,7.785 C 55.957,8.013 55.579,8.547 55.579,9.168 L 55.579,48.715 C 55.579,49.542 56.251,50.215 57.079,50.215 L 88.012,50.215 C 88.839,50.215 89.512,49.542 89.512,48.715 L 89.512,9.168 C 89.512,8.34 88.839,7.668 88.012,7.668 L 57.079,7.668 C 56.872,7.668 56.674,7.71 56.495,7.785 Z M 81.99,10.668 L 81.99,15.015 L 58.579,15.015 L 58.579,10.668 L 81.99,10.668 Z M 86.512,10.668 L 86.512,15.015 L 84.99,15.015 L 84.99,10.668 L 86.512,10.668 Z M 59.378,12.957 C 59.378,13.37 59.714,13.707 60.128,13.707 L 64.015,13.707 C 64.428,13.707 64.765,13.37 64.765,12.957 C 64.765,12.543 64.428,12.207 64.015,12.207 L 60.128,12.207 C 59.714,12.207 59.378,12.543 59.378,12.957 Z M 30.392,20.439 C 29.773,21.056 29.112,21.791 28.463,22.586 L 25.579,22.489 C 25.164,22.475 24.762,22.634 24.468,22.928 L 20.922,26.473 C 20.144,27.251 20.443,28.578 21.48,28.947 L 24.597,30.055 C 24.63,30.142 24.67,30.225 24.719,30.305 L 24.215,31.02 C 23.794,31.617 23.864,32.43 24.38,32.946 L 28.067,36.633 C 28.583,37.149 29.396,37.219 29.992,36.798 L 30.706,36.294 C 30.841,36.377 30.988,36.437 31.141,36.474 L 32.321,39.787 C 32.69,40.823 34.017,41.122 34.795,40.344 L 38.34,36.8 C 38.634,36.507 38.793,36.104 38.779,35.689 L 38.667,32.358 C 39.372,31.771 40.023,31.179 40.579,30.624 C 45.014,26.191 46.007,21.28 43.58,17.808 C 43.479,17.664 43.354,17.539 43.21,17.438 C 39.715,14.994 34.797,16.033 30.392,20.439 Z M 81.99,18.948 L 81.99,23.295 L 58.579,23.295 L 58.579,18.948 L 81.99,18.948 Z M 86.512,18.948 L 86.512,23.295 L 84.99,23.295 L 84.99,18.948 L 86.512,18.948 Z M 40.731,19.479 L 41.252,19.765 L 41.534,20.278 C 42.332,22.178 41.877,25.085 38.458,28.503 C 36.86,30.101 34.558,31.849 32.717,32.852 L 31.869,33.273 L 27.742,29.147 L 28.162,28.301 C 29.163,26.461 30.909,24.162 32.513,22.56 C 35.908,19.165 38.815,18.678 40.731,19.479 Z M 59.378,21.237 C 59.378,21.65 59.714,21.987 60.128,21.987 L 64.015,21.987 C 64.428,21.987 64.765,21.65 64.765,21.237 C 64.765,20.823 64.428,20.487 64.015,20.487 L 60.128,20.487 C 59.714,20.487 59.378,20.823 59.378,21.237 Z M 81.99,27.228 L 81.99,31.575 L 58.579,31.575 L 58.579,27.228 L 81.99,27.228 Z M 86.512,27.228 L 86.512,31.575 L 84.99,31.575 L 84.99,27.228 L 86.512,27.228 Z M 59.378,29.517 C 59.378,29.93 59.714,30.267 60.128,30.267 L 64.015,30.267 C 64.428,30.267 64.765,29.93 64.765,29.517 C 64.765,29.103 64.428,28.767 64.015,28.767 L 60.128,28.767 C 59.714,28.767 59.378,29.103 59.378,29.517 Z M 81.99,34.59 L 81.99,38.935 L 58.579,38.935 L 58.579,34.59 L 81.99,34.59 Z M 86.512,34.59 L 86.512,38.935 L 84.99,38.935 L 84.99,34.59 L 86.512,34.59 Z M 59.378,36.877 C 59.378,37.29 59.714,37.627 60.128,37.627 L 64.015,37.627 C 64.428,37.627 64.765,37.29 64.765,36.877 C 64.765,36.463 64.428,36.127 64.015,36.127 L 60.128,36.127 C 59.714,36.127 59.378,36.463 59.378,36.877 Z M 26.435,50.841 C 25.058,52.217 23.589,53.871 22.171,55.645 L 15.405,55.414 C 14.99,55.4 14.587,55.559 14.293,55.853 L 7.064,63.08 C 6.286,63.858 6.585,65.185 7.622,65.554 L 14.908,68.147 C 14.892,68.536 15.038,68.921 15.32,69.204 L 15.734,69.618 L 13.948,72.151 C 13.527,72.747 13.597,73.56 14.113,74.076 L 21.631,81.593 C 22.147,82.109 22.96,82.179 23.556,81.758 L 26.087,79.971 L 26.509,80.393 C 26.867,80.75 27.389,80.888 27.876,80.756 L 30.671,88.603 C 31.04,89.639 32.368,89.938 33.145,89.16 L 40.372,81.931 C 40.666,81.637 40.825,81.234 40.811,80.819 L 40.548,73.155 C 42.141,71.858 43.622,70.531 44.874,69.28 C 53.582,60.571 55.166,51.494 50.806,45.257 C 50.711,45.121 50.594,45.004 50.458,44.909 C 44.22,40.548 35.142,42.134 26.435,50.841 Z M 81.99,42.87 L 81.99,47.215 L 58.579,47.215 L 58.579,42.87 L 81.99,42.87 Z M 86.512,42.87 L 86.512,47.215 L 84.99,47.215 L 84.99,42.87 L 86.512,42.87 Z M 59.378,45.157 C 59.378,45.57 59.714,45.907 60.128,45.907 L 64.015,45.907 C 64.428,45.907 64.765,45.57 64.765,45.157 C 64.765,44.743 64.428,44.407 64.015,44.407 L 60.128,44.407 C 59.714,44.407 59.378,44.743 59.378,45.157 Z M 47.942,46.659 L 48.628,47.086 L 49.055,47.772 C 51.621,52.441 50.605,59.559 42.879,67.285 C 39.02,71.144 33.085,75.545 28.825,77.407 L 27.867,77.761 L 17.951,67.845 L 18.304,66.889 C 20.165,62.634 24.565,56.695 28.428,52.836 C 36.153,45.11 43.272,44.092 47.942,46.659 Z M 66.079,62.849 C 65.21,63.717 64.282,64.757 63.378,65.877 L 59.272,65.738 C 58.857,65.724 58.455,65.883 58.161,66.177 L 53.423,70.915 C 52.645,71.693 52.944,73.02 53.981,73.389 L 58.387,74.956 C 58.444,75.22 58.572,75.469 58.764,75.671 L 57.878,76.927 C 57.457,77.523 57.527,78.337 58.043,78.853 L 62.972,83.781 C 63.488,84.297 64.301,84.367 64.898,83.946 L 66.152,83.059 C 66.413,83.307 66.749,83.45 67.098,83.471 L 68.777,88.183 C 69.146,89.219 70.473,89.518 71.251,88.74 L 75.987,84.003 C 76.281,83.709 76.44,83.307 76.426,82.892 L 76.266,78.194 C 77.267,77.372 78.194,76.536 78.981,75.75 C 84.001,70.728 85.597,65.413 83.975,61.212 C 83.712,60.532 83.365,59.881 82.935,59.265 C 82.834,59.121 82.709,58.996 82.565,58.895 C 81.968,58.478 81.336,58.14 80.675,57.882 C 76.473,56.242 71.095,57.834 66.079,62.849 Z M 15.953,58.435 L 19.962,58.572 C 18.329,60.867 16.891,63.217 15.919,65.322 L 10.864,63.523 L 15.953,58.435 Z M 79.743,60.75 C 80.358,61.1 80.78,61.563 81.086,62.092 C 82.25,64.875 81.502,68.984 76.86,73.629 C 74.349,76.138 70.521,78.958 67.841,80.135 L 67.571,80.236 L 61.591,74.257 L 61.691,73.987 C 62.867,71.309 65.687,67.483 68.2,64.97 C 72.818,60.352 76.968,59.601 79.743,60.75 Z M 17.551,72.248 L 23.458,78.156 L 22.859,78.579 L 17.127,72.848 L 17.551,72.248 Z M 37.632,75.667 L 37.79,80.271 L 32.702,85.361 L 30.744,79.863 L 37.632,75.667 Z" stroke="none" fill="#ffffff" fill-rule="evenodd" stroke-width="0.5" marker-start="none" marker-end="none" stroke-miterlimit="79.8403193612775"></path></g></g></g></svg>