<svg height='300px' width='300px'  fill="#28a745" xmlns="http://www.w3.org/2000/svg" xmlns:xlink="http://www.w3.org/1999/xlink" version="1.1" x="0px" y="0px" viewBox="0 0 50 50" style="enable-background:new 0 0 50 50;" xml:space="preserve"><style type="text/css">
	.st0{fill:none;stroke:#28a745;stroke-width:1.2;stroke-linecap:round;stroke-linejoin:round;stroke-miterlimit:10;}
	.st1{fill:none;stroke:#28a745;stroke-width:1.1;stroke-linecap:round;stroke-linejoin:round;stroke-miterlimit:10;}
	.st2{fill:none;stroke:#28a745;stroke-width:1.4;stroke-linecap:round;stroke-linejoin:round;stroke-miterlimit:10;}
	.st3{stroke:#28a745;stroke-width:0.2;stroke-miterlimit:10;}
	.st4{fill:none;}
	.st5{fill:none;stroke:#28a745;stroke-width:0.2;stroke-miterlimit:10;}
	.st6{fill:none;stroke:#28a745;stroke-linecap:round;stroke-linejoin:round;stroke-miterlimit:10;}
	.st7{fill:none;stroke:#28a745;stroke-width:0.95;stroke-miterlimit:10;}
	.st8{fill:none;stroke:#28a745;stroke-width:0.9;stroke-linecap:round;stroke-linejoin:round;stroke-miterlimit:10;}
	.st9{fill:none;stroke:#28a745;stroke-width:1.3;stroke-linecap:round;stroke-linejoin:round;stroke-miterlimit:10;}
	.st10{fill:none;stroke:#28a745;stroke-linecap:round;stroke-miterlimit:10;}
	.st11{fill:none;stroke:#28a745;stroke-width:1.1;stroke-linecap:round;stroke-miterlimit:10;}
</style><g><rect x="33.6093063" y="9.6229696" transform="matrix(0.8184531 -0.5745734 0.5745734 0.8184531 -6.1527882 24.1038761)" class="st0" width="2.9143574" height="24.3307419"></rect><rect x="23.309761" y="6.1246829" transform="matrix(0.8184531 -0.5745734 0.5745734 0.8184531 0.4070541 15.5225172)" class="st0" width="2.9143574" height="1.9848763"></rect><rect x="23.1790237" y="7.4966006" transform="matrix(0.8184531 -0.5745734 0.5745734 0.8184531 -0.8285034 17.1388302)" class="st0" width="7.0557084" height="4.7677393"></rect><path class="st0" d="M24.6530819,13.0948668c-3.3757133,2.732935-6.182539,5.6755743-8.2677135,8.544982   c0.6272507-3.6614323,2.938694-7.626729,6.5546646-10.9851389"></path><path class="st0" d="M28.6707439,6.5379095c4.5572376-2.4847918,9.3034992-3.4156053,13.1205082-2.7335911   c-3.5735741,1.0328903-7.480732,2.7919092-11.3854275,5.2051334"></path></g><line class="st1" x1="10.1430998" y1="14.87181" x2="10.1430998" y2="14.87181"></line><line class="st1" x1="14.1597605" y1="22.1945744" x2="11.0872955" y2="16.5931702"></line><line class="st1" x1="20.2184429" y1="24.3722248" x2="24.5506039" y2="22.7162247"></line><line class="st1" x1="23.9582672" y1="17.8124561" x2="23.9449978" y2="17.7991886"></line><line class="st1" x1="19.1918621" y1="22.8038731" x2="22.6370239" y2="19.2423191"></line><line class="st1" x1="6.4616475" y1="19.3938999" x2="6.2316732" y2="19.2393475"></line><line class="st1" x1="12.682004" y1="23.5742378" x2="8.3865032" y2="20.6874828"></line><g><path d="M15.9283552,25.4463139c-5.8193359,0-10.5537109,4.734375-10.5537109,10.5532246   c0,5.8193359,4.734375,10.5527344,10.5537109,10.5527344s10.5527334-4.7333984,10.5527334-10.5527344   C26.4810886,30.1806889,21.7476902,25.4463139,15.9283552,25.4463139z M15.9283552,45.353054   c-5.1582031,0-9.3544922-4.1962891-9.3544922-9.3535156s4.1962891-9.3530293,9.3544922-9.3530293   c5.1572256,0,9.3535147,4.1958008,9.3535147,9.3530293S21.0855808,45.353054,15.9283552,45.353054z"></path><path d="M19.500803,38.9859886c0.0284424-0.2099609-0.0196533-0.3859863-0.1519775-0.555481   c-0.1334229-0.1661987-0.3050537-0.2624512-0.5259399-0.2930298c-0.218689-0.029541-0.3914795,0.0163574-0.5423584,0.138855   c-0.6408081,0.4669189-1.3657837,0.6998291-2.1672974,0.6998291c-0.8168325,0-1.5505362-0.3116455-2.1781607-0.9251099   c-0.6309814-0.6177979-0.9502563-1.3586426-0.9502563-2.2028198c0-0.8446655,0.3225708-1.5888062,0.960083-2.2115479   c0.6374512-0.621582,1.3701172-0.9365234,2.1781607-0.9365234c0.7927856,0,1.5144653,0.2323608,2.1454468,0.69104   c0.1793213,0.1465454,0.3520508,0.1935425,0.564209,0.168396c0.2131958-0.0300293,0.3826904-0.1268311,0.5172119-0.2952271   c0.130127-0.1656494,0.1793213-0.354248,0.1497803-0.5762329c-0.0305786-0.2236328-0.1257324-0.3947754-0.2908325-0.5216064   c-0.6053467-0.4615498-1.2620239-0.7567158-1.9543457-0.9101582v-1.355957c0-0.2763672-0.2236328-0.5-0.5-0.5   s-0.5,0.2236328-0.5,0.5v1.2323608c-0.0141602-0.0001221-0.0275879-0.003418-0.0418091-0.003418   c-0.3930044,0.0037842-0.7657461,0.0637207-1.1281118,0.151062v-1.3800049c0-0.2763672-0.2236328-0.5-0.5-0.5   s-0.5,0.2236328-0.5,0.5v1.753479c-0.4422607,0.2232056-0.8627319,0.500185-1.243042,0.8696918   c-0.9469604,0.9234009-1.4083862,2.0043335-1.4083862,3.3044434c0,1.2832031,0.4745483,2.3991089,1.4094849,3.3154297   c0.3796387,0.3721313,0.7997437,0.6497192,1.2419434,0.8723755v1.6956177c0,0.2763672,0.2236328,0.5,0.5,0.5s0.5-0.2236328,0.5-0.5   v-1.3258057c0.3621216,0.085022,0.7348022,0.1421509,1.1281118,0.1421509c0.0140991,0,0.02771-0.0032349,0.0418091-0.0033569   v1.1870117c0,0.2763672,0.2236328,0.5,0.5,0.5s0.5-0.2236328,0.5-0.5V40.401638   c0.6832275-0.149353,1.3416138-0.4333496,1.9619751-0.8765869C19.3684788,39.3883934,19.4691257,39.2057762,19.500803,38.9859886z"></path></g><line class="st1" x1="8.1394997" y1="24.8682098" x2="8.1394997" y2="24.8682098"></line><line class="st1" x1="26.1466999" y1="26.8658104" x2="26.1466999" y2="26.8658104"></line><line class="st1" x1="28.1478996" y1="24.8646107" x2="28.1478996" y2="24.8646107"></line></svg>