<svg height='300px' width='300px'  fill="#ed7d31" xmlns="http://www.w3.org/2000/svg" xmlns:xlink="http://www.w3.org/1999/xlink" version="1.1" x="0px" y="0px" viewBox="0 0 100 100" enable-background="new 0 0 100 100" xml:space="preserve"><g><path d="M58.299,43.908l-5.421,11.621l-1.389-4.236c0.292-0.214,0.485-0.557,0.54-1.027l1.022-2.441   c0-0.709-0.622-1.284-1.388-1.284H50h-1.664c-0.766,0-1.388,0.575-1.388,1.284l1.023,2.441c0.054,0.47,0.248,0.813,0.54,1.027   l-1.388,4.236L41.7,43.908c-9.407,7.306-16.031,0.446-17.297,12.785h51.193C74.331,44.354,67.706,51.214,58.299,43.908z"></path><path d="M62.362,23.246l-3.87,1.676l-5.802,2.511c-0.96,0.417-1.993,0.504-2.691,0.504s-1.731-0.087-2.69-0.503l-5.802-2.512   l-3.868-1.674c-0.022,0.416-0.038,0.847-0.045,1.296c-0.017,0.217-0.031,0.433-0.043,0.648c-0.422,0.083-0.73,0.579-0.889,1.317   c-0.112,0.524-0.147,1.171-0.095,1.879c0.022,0.311,0.061,0.632,0.119,0.961c0.347,1.973,1.226,3.494,2.035,3.609   c2.016,5.491,6.331,10.677,11.33,10.677c5.005,0,9.322-5.199,11.336-10.698c0.778-0.23,1.594-1.705,1.926-3.588   c0.36-2.047,0.02-3.834-0.764-4.126C62.514,24.569,62.452,23.908,62.362,23.246z"></path><path d="M32.495,13.75l1.181,0.511l-0.099,0.793c-0.453,0.077-0.798,0.47-0.798,0.945c0,0.426,0.278,0.789,0.665,0.912   l-0.717,10.043c-0.03,0.418,0.054,1.087,0.187,1.485l0.582,1.747c0.066,0.199,0.154,0.299,0.241,0.299   c0.088,0,0.176-0.1,0.242-0.299l0.582-1.747c0.133-0.398,0.217-1.067,0.188-1.485l-0.717-10.043   c0.384-0.125,0.665-0.485,0.665-0.912c0-0.475-0.346-0.868-0.799-0.945l-0.092-0.738l2.727,1.18l1.335,0.579v4.845v0.31l4.412,1.91   l5.803,2.511c0.528,0.229,1.223,0.343,1.918,0.343c0.696,0,1.391-0.114,1.918-0.343l5.803-2.511l4.412-1.91V20.93v-4.855   l1.335-0.578l4.036-1.747c1.054-0.457,1.054-1.204,0-1.661L51.918,5.343C51.391,5.114,50.695,5,50,5   c-0.695,0-1.391,0.114-1.918,0.343l-15.586,6.747C31.44,12.546,31.44,13.293,32.495,13.75z"></path><path d="M73.303,93.058H26.698c-0.536,0-0.971,0.436-0.971,0.972S26.162,95,26.698,95h46.605c0.536,0,0.971-0.435,0.971-0.971   S73.839,93.058,73.303,93.058z"></path><path d="M75.702,57.988h-0.106H24.402h-0.104c-2.603,0-4.722,2.118-4.722,4.722v0.11l0.019,0.109l4.267,24.745   c0.063,2.548,2.157,4.602,4.72,4.602h42.837c2.563,0,4.656-2.054,4.72-4.602l4.266-24.745l0.019-0.109v-0.11   C80.423,60.106,78.306,57.988,75.702,57.988z M50,76.736c-1.123,0-2.033-0.908-2.033-2.033c0-1.121,0.911-2.029,2.033-2.029   s2.031,0.908,2.031,2.029C52.031,75.828,51.123,76.736,50,76.736z"></path></g></svg>